<svg xmlns="http://www.w3.org/2000/svg" viewBox="-500 -500 1000 1000" role="img" aria-label="HIVE">
<title>HIVE</title>
<path fill="#171410" d="M-500,0c0,-276.14 223.86,-500 500,-500c276.14,0 500,223.86 500,500c0,276.14 -223.86,500 -500,500c-276.14,0 -500,-223.86 -500,-500zM-169,152.3c0,-22.17 22.96,-64.47 45.46,-99.85c-25.15,8.72 -50.44,17.21 -76.21,23.84c-20.31,5.22 -41.88,9.83 -62.92,7.17c-18.46,-2.33 -36.04,-11.4 -51.75,-21.81v266.87l145.42,52.65zM-314.42,-194.82c2.06,0.71 4.11,1.45 6.18,2.2c12.68,4.59 25.35,9.18 38.03,13.77c33.74,12.22 67.47,24.43 101.21,36.65v-238.97l-145.42,52.65zM169,-142.19c33.27,-12.05 66.53,-24.09 99.8,-36.14c13.15,-4.76 26.29,-9.52 39.44,-14.28c2.07,-0.75 4.12,-1.5 6.18,-2.23v-133.68l-145.42,-52.65zM314.41,61.67c-14.87,9.87 -31.41,18.55 -48.79,21.38c-17.51,2.85 -35.56,0.14 -52.73,-3.61c-25.87,-5.65 -51.13,-14.05 -76.19,-22.52c-4.4,-1.49 -8.79,-2.98 -13.18,-4.49c22.5,35.38 45.48,77.7 45.48,99.88v228.86l145.42,-52.65zM-67.72,-11.62c6.2,22.98 23.68,27.88 67.71,27.88c44.03,0 61.51,-4.9 67.71,-27.88c105.78,37.18 170.87,61.2 197.02,51.73c60.28,-21.83 138.42,-120.12 131.88,-164.06c-7.88,-29.45 -33.57,-43.84 -61.39,-33.77l-265.01,95.95c-1.39,-18.59 -5.79,-29.61 -16.58,-35.96c17.98,-11.94 29.4,-29.76 29.4,-49.67c0,-21.5 -13.31,-40.57 -33.83,-52.41c2.55,-3.52 4.88,-7.13 6.11,-9.07c5.63,-8.87 12.35,-17.02 20.2,-23.87c4.52,-3.95 9.4,-7.45 14.57,-10.43c3.79,-2.19 8.23,-3.63 10.81,-7.47c3.97,-5.91 2.51,-14.28 -3.2,-18.39c-8.33,-6 -18.19,1.37 -25.36,6.04c-15.47,10.06 -28.35,23.84 -38.36,39.6c-2.62,4.12 -6.32,9.11 -8.2,14.14c-8.11,-2.07 -16.78,-3.19 -25.77,-3.19c-9.65,0 -18.91,1.29 -27.53,3.66c-2.2,-6.19 -5.53,-13.26 -7.65,-16.49c-9.82,-14.97 -22.3,-28.06 -37.14,-37.72c-8.2,-5.34 -20.91,-13.95 -28.51,-2.81c-3.53,5.18 -2.94,12.44 1.37,16.93c3.52,3.67 9.29,5.49 13.53,8.25c7.39,4.81 14.07,10.72 19.93,17.41c5.16,5.9 9.68,12.38 13.62,19.2c0.86,1.47 1.63,3.07 2.45,4.64c-20.1,11.87 -33.1,30.73 -33.1,51.98c0,19.92 11.42,37.74 29.4,49.67c-10.79,6.35 -15.19,17.37 -16.58,35.96l-265.01,-95.95c-27.82,-10.07 -53.51,4.32 -61.39,33.77c-6.53,43.94 71.6,142.23 131.88,164.06c26.15,9.47 91.24,-14.55 197.02,-51.73zM109.49,121.28c-3.54,-23.98 -13.05,-45.66 -26.73,-63.02h-165.53c-13.68,17.36 -23.19,39.04 -26.73,63.02zM-109.49,163.28c3.54,23.98 13.05,45.66 26.73,63.02h165.53c13.68,-17.36 23.19,-39.04 26.73,-63.02zM-0.01,355.72l52.08,-87.42h-104.15z"/>
</svg>
